<svg xmlns="http://www.w3.org/2000/svg" width="512" height="512" viewBox="0 0 512 512" version="1.1">
	<path d="M 235.500 28.712 C 211.375 32.024, 174.546 44.085, 153.236 55.652 C 128.595 69.028, 111.031 81.821, 94.491 98.439 C 76.948 116.065, 64.234 133.660, 52.495 156.555 C 20.968 218.043, 20.053 296.103, 50.166 355.233 C 65.881 386.092, 89.334 414.258, 116.968 435.463 C 156.312 465.654, 200.915 481.015, 254.138 482.704 C 291.392 483.886, 319.129 477.925, 352.500 461.564 C 377.850 449.137, 396.613 435.524, 415.356 415.964 C 444.260 385.801, 461.754 358.245, 472.534 325.897 C 479.058 306.324, 481.966 290.263, 482.685 269.844 C 484.957 205.302, 461.954 146.235, 416.003 98.616 C 378.270 59.514, 335.253 37.198, 282.872 29.552 C 273.036 28.116, 243.637 27.594, 235.500 28.712 M 254.753 43.056 C 249.942 43.483, 243.807 44.305, 241.121 44.881 C 237.904 45.571, 235.089 45.599, 232.875 44.964 C 223.931 42.399, 203.783 44.338, 189.861 49.103 C 179.359 52.698, 159 63.773, 159 65.892 C 159 66.464, 172.860 66.369, 192 65.664 C 196.675 65.492, 201.271 65.006, 202.214 64.583 C 203.745 63.896, 203.865 64.345, 203.339 68.786 C 202.973 71.877, 203.636 79.575, 205.092 89.129 C 208.310 110.250, 208.517 137.637, 205.500 143.165 C 204.400 145.181, 201.577 150.599, 199.228 155.205 C 194.972 163.548, 178.880 185.189, 167.034 198.500 C 163.608 202.350, 160.162 206.738, 159.376 208.250 C 157.760 211.364, 155.546 212.005, 156.471 209.091 C 156.804 208.042, 157.954 204.016, 159.027 200.146 C 164.149 181.661, 175.476 164.728, 191.989 150.867 L 197.477 146.260 195.103 138.380 C 190.678 123.691, 187.039 105.513, 185.418 90 C 184.650 82.647, 183.742 81, 180.457 81 C 173.268 81, 143.827 94.606, 127.500 105.474 C 116.339 112.903, 106.817 120.567, 104.755 123.781 C 103.316 126.023, 103.010 128.872, 103.005 140.030 C 102.999 154.904, 105.410 177.585, 107.230 179.777 C 107.866 180.544, 114.938 185.706, 122.944 191.249 C 140.177 203.180, 138.463 201.870, 137.757 202.576 C 137.034 203.300, 123.584 198.930, 110.646 193.767 C 104.797 191.434, 99.910 190.057, 98.623 190.380 C 96.301 190.963, 96.038 190.295, 92.376 174.500 C 90.043 164.435, 89.528 143.725, 91.394 135 C 92.276 130.875, 92.999 127.162, 92.999 126.750 C 93.003 123.640, 81.647 129.490, 76.191 135.409 C 67.218 145.144, 57.076 162.490, 50.471 179.399 C 46.205 190.320, 45.909 191.635, 46.865 195.399 C 47.438 197.655, 48.183 202.200, 48.520 205.500 C 51.026 230.015, 64.787 262.514, 74.350 266.498 C 80.016 268.859, 102.165 271.889, 118.829 272.583 L 135.158 273.263 136.539 276.381 C 137.299 278.097, 141.566 291.650, 146.021 306.500 C 150.476 321.350, 154.582 334.972, 155.145 336.772 C 155.869 339.082, 157.173 340.463, 159.585 341.471 C 163.585 343.142, 163.657 343.707, 160.939 352.120 C 157.072 364.087, 149 395.118, 149 398.015 C 149 400.498, 149.878 401.423, 155.250 404.598 C 176.219 416.990, 208.022 431.428, 223.476 435.570 L 232.452 437.977 241.976 432.352 C 261.670 420.722, 284.095 403.957, 303.250 386.543 C 310.960 379.534, 314 376.120, 314 374.473 C 314 373.210, 311.137 364.374, 307.639 354.838 C 304.140 345.302, 299.614 332.471, 297.581 326.324 C 295.548 320.178, 293.281 314.648, 292.543 314.036 C 291.666 313.308, 282.602 312.793, 266.351 312.548 C 249.734 312.297, 238.352 311.640, 232 310.563 C 226.775 309.678, 215.146 308.671, 206.159 308.326 L 189.817 307.698 190.456 304.599 C 192.294 295.681, 192.303 295.729, 187.928 290.500 C 177.981 278.613, 169.182 263.344, 165.167 251 C 161.104 238.513, 158.424 216, 160.999 216 C 162.503 216, 180.339 224.935, 181.574 226.307 C 182.875 227.752, 188.835 240.714, 198.652 263.449 C 202.677 272.772, 206.540 280.940, 207.235 281.601 C 207.931 282.262, 215.025 284.626, 223 286.853 C 252.172 294.999, 281.722 300.996, 294.301 301.323 C 302.825 301.545, 302.759 301.624, 309.869 282.751 C 316.266 265.771, 325.873 245.358, 332.330 235.026 C 337.194 227.241, 337.751 224.979, 335.708 221.304 C 335.037 220.097, 318.136 202.672, 298.150 182.582 C 267.063 151.334, 261.284 145.953, 258.156 145.346 C 256.145 144.955, 248.088 144.605, 240.250 144.568 C 232.413 144.531, 226 144.197, 226 143.828 C 226 142.327, 241.072 139.005, 247.934 138.994 C 256.740 138.981, 257.990 137.991, 265.408 125.159 C 275.470 107.754, 284.289 95.762, 295 84.924 C 304.538 75.272, 308.432 72.273, 309.398 73.836 C 309.961 74.746, 295.874 116.770, 289.159 134.214 C 286.891 140.106, 285.287 145.585, 285.596 146.389 C 285.905 147.194, 289.558 150.698, 293.715 154.176 C 306.874 165.188, 320.369 182.390, 330.840 201.500 C 338.616 215.691, 338.921 216.072, 342.500 216.071 C 344.150 216.070, 358.325 215.842, 374 215.563 L 402.500 215.057 403.742 211.473 C 405.488 206.438, 408.688 190.249, 410.161 179 C 410.846 173.775, 411.384 159.991, 411.358 148.368 C 411.300 123.240, 411.906 124.841, 397.199 110.914 C 378.499 93.205, 359.806 79.532, 350.500 76.756 C 348.300 76.100, 345.702 74.564, 344.726 73.344 C 341.784 69.662, 328.210 59.134, 315.911 50.995 L 304.323 43.325 291.411 42.667 C 276.207 41.891, 266.730 41.992, 254.753 43.056 M 395 93.361 C 395 93.560, 397.308 97.223, 400.128 101.501 C 402.949 105.779, 407.172 112.864, 409.513 117.245 L 413.769 125.211 425.884 131.600 C 432.548 135.114, 438 137.740, 438 137.436 C 438 136.168, 425.057 120.013, 418.568 113.182 C 409.398 103.529, 395 91.420, 395 93.361 M 471.117 215.119 C 470.843 235.256, 463.650 260.050, 453.684 275.206 L 450.203 280.500 450.352 294.667 C 450.433 302.459, 450.806 309.140, 451.180 309.514 C 451.554 309.888, 454.389 307.563, 457.480 304.347 C 463.781 297.792, 471.011 284.336, 473.517 274.500 C 477.337 259.507, 477.163 235.176, 473.095 215.500 L 471.234 206.500 471.117 215.119 M 359 227.973 C 344.106 229.897, 343.598 230.309, 341.539 242.115 C 338.526 259.392, 332.704 273.257, 320.935 291.180 C 313.809 302.033, 313.817 301.915, 318.847 319.816 C 320.596 326.040, 323.842 339.315, 326.060 349.316 C 328.576 360.659, 330.734 368.143, 331.797 369.208 C 332.861 370.275, 339.130 372.095, 348.500 374.057 C 361.015 376.678, 366.506 377.284, 381.641 377.719 L 399.783 378.239 404.403 372.370 C 410.859 364.169, 432.646 332.219, 438.752 322 L 443.831 313.500 444.484 298 L 445.138 282.500 439.555 273.754 C 426.967 254.035, 414.460 238.330, 405.309 230.750 L 400.782 227 382.641 227.131 C 372.664 227.203, 362.025 227.582, 359 227.973 M 62.437 270.495 C 57.126 283.209, 55.213 303.444, 56.954 328.500 C 57.642 338.400, 58.642 347.036, 59.176 347.691 C 59.710 348.345, 61.344 349.020, 62.809 349.191 C 65.247 349.474, 65.449 349.836, 65.215 353.500 C 64.899 358.454, 71.555 377.931, 76.077 385.279 C 77.813 388.101, 83.793 395.263, 89.367 401.196 C 99.422 411.900, 99.561 412.002, 107.500 414.444 C 115.816 417.003, 130.909 420.606, 137.041 421.498 C 139.499 421.855, 143.019 424.048, 148.541 428.665 C 160.574 438.723, 177.484 451.080, 187.090 456.835 C 198.636 463.751, 206.821 467.333, 217 469.924 C 225.763 472.154, 246 473.937, 246 472.479 C 246 472.027, 245.258 470.838, 244.351 469.836 C 243.444 468.833, 239.732 462.280, 236.101 455.273 C 228.705 440.999, 230.665 442.428, 214.500 439.517 C 194.772 435.965, 162.784 420.048, 148 406.428 C 145.525 404.148, 140.546 400.886, 136.936 399.179 C 128.312 395.101, 117.444 387.975, 101.500 375.943 C 89.303 366.740, 69.433 349.384, 67.740 346.455 C 64.814 341.396, 64.373 298.066, 67.066 280.242 C 68.006 274.021, 68.034 271.370, 67.178 269.492 C 65.616 266.063, 64.161 266.370, 62.437 270.495 M 442.362 331.334 C 437.474 341.479, 424.461 359.321, 413.779 370.523 C 404.153 380.618, 404.068 380.750, 405.074 384.109 C 405.633 385.974, 405.969 392.866, 405.821 399.426 C 405.641 407.460, 405.913 411.471, 406.658 411.719 C 408.333 412.278, 416.920 402.129, 422.296 393.236 C 431.475 378.052, 441.077 353.782, 444.452 337.235 C 446.886 325.299, 446.202 323.365, 442.362 331.334" stroke="none" fill="black" fill-rule="evenodd"/>
</svg>